<svg width="1440" height="128" viewBox="0 0 1440 128" fill="none" xmlns="http://www.w3.org/2000/svg">
<path d="M80 193C66.6667 193 54.25 190.583 42.75 185.75C31.4167 180.917 21.5 174.167 13 165.5C4.5 156.833 -2.16667 146.667 -7 135C-11.6667 123.333 -14 110.583 -14 96.75C-14 82.9167 -11.6667 70.1667 -7 58.5C-2.33333 46.6667 4.25 36.5 12.75 28C21.25 19.3333 31.1667 12.6667 42.5 7.99999C54 3.16666 66.5 0.749993 80 0.749993C93.5 0.749993 105.583 2.99999 116.25 7.5C127.083 12 136.25 18 143.75 25.5C151.25 33 156.583 41.3333 159.75 50.5L125.5 67C122.333 58 116.75 50.5833 108.75 44.75C100.917 38.75 91.3333 35.75 80 35.75C69 35.75 59.3333 38.3333 51 43.5C42.6667 48.6667 36.1667 55.8333 31.5 65C27 74 24.75 84.5833 24.75 96.75C24.75 108.917 27 119.583 31.5 128.75C36.1667 137.917 42.6667 145.083 51 150.25C59.3333 155.417 69 158 80 158C91.3333 158 100.917 155.083 108.75 149.25C116.75 143.25 122.333 135.75 125.5 126.75L159.75 143.25C156.583 152.417 151.25 160.75 143.75 168.25C136.25 175.75 127.083 181.75 116.25 186.25C105.583 190.75 93.5 193 80 193ZM181.865 190V0.749993H219.365V80.5L214.865 74.5C218.032 66.3333 223.115 60.3333 230.115 56.5C237.282 52.5 245.615 50.5 255.115 50.5C265.449 50.5 274.449 52.6667 282.115 57C289.949 61.3333 296.032 67.4167 300.365 75.25C304.699 82.9167 306.865 91.9167 306.865 102.25V190H269.365V110.25C269.365 104.917 268.282 100.333 266.115 96.5C264.115 92.6667 261.199 89.6667 257.365 87.5C253.699 85.3333 249.365 84.25 244.365 84.25C239.532 84.25 235.199 85.3333 231.365 87.5C227.532 89.6667 224.532 92.6667 222.365 96.5C220.365 100.333 219.365 104.917 219.365 110.25V190H181.865ZM373.773 193C363.94 193 355.44 191.417 348.273 188.25C341.107 185.083 335.607 180.583 331.773 174.75C327.94 168.75 326.023 161.667 326.023 153.5C326.023 145.833 327.773 139.083 331.273 133.25C334.773 127.25 340.107 122.25 347.273 118.25C354.607 114.25 363.69 111.417 374.523 109.75L416.273 103V130.5L381.273 136.75C375.94 137.75 371.857 139.5 369.023 142C366.19 144.333 364.773 147.75 364.773 152.25C364.773 156.417 366.357 159.667 369.523 162C372.69 164.333 376.607 165.5 381.273 165.5C387.44 165.5 392.857 164.167 397.523 161.5C402.19 158.833 405.773 155.25 408.273 150.75C410.94 146.083 412.273 141 412.273 135.5V100C412.273 94.8333 410.19 90.5 406.023 87C402.023 83.5 396.523 81.75 389.523 81.75C382.857 81.75 376.94 83.5833 371.773 87.25C366.773 90.9167 363.107 95.75 360.773 101.75L330.773 87.5C333.44 79.8333 337.69 73.25 343.523 67.75C349.357 62.25 356.357 58 364.523 55C372.69 52 381.607 50.5 391.273 50.5C402.773 50.5 412.94 52.5833 421.773 56.75C430.607 60.9167 437.44 66.75 442.273 74.25C447.273 81.5833 449.773 90.1667 449.773 100V190H414.773V168L423.273 166.5C419.273 172.5 414.857 177.5 410.023 181.5C405.19 185.333 399.773 188.167 393.773 190C387.773 192 381.107 193 373.773 193ZM477.275 190V53.5H514.775V190H477.275ZM477.275 41.25V3.74998H514.775V41.25H477.275ZM542.217 190V53.5H577.217V80.5L575.217 74.5C578.383 66.3333 583.467 60.3333 590.467 56.5C597.633 52.5 605.967 50.5 615.467 50.5C625.8 50.5 634.8 52.6667 642.467 57C650.3 61.3333 656.383 67.4167 660.717 75.25C665.05 82.9167 667.217 91.9167 667.217 102.25V190H629.717V110.25C629.717 104.917 628.633 100.333 626.467 96.5C624.467 92.6667 621.55 89.6667 617.717 87.5C614.05 85.3333 609.717 84.25 604.717 84.25C599.883 84.25 595.55 85.3333 591.717 87.5C587.883 89.6667 584.883 92.6667 582.717 96.5C580.717 100.333 579.717 104.917 579.717 110.25V190H542.217ZM736.797 190V53.5H774.297V190H736.797ZM736.797 41.25V3.74998H774.297V41.25H736.797ZM801.738 190V53.5H836.738V80.5L834.738 74.5C837.905 66.3333 842.988 60.3333 849.988 56.5C857.155 52.5 865.488 50.5 874.988 50.5C885.322 50.5 894.322 52.6667 901.988 57C909.822 61.3333 915.905 67.4167 920.238 75.25C924.572 82.9167 926.738 91.9167 926.738 102.25V190H889.238V110.25C889.238 104.917 888.155 100.333 885.988 96.5C883.988 92.6667 881.072 89.6667 877.238 87.5C873.572 85.3333 869.238 84.25 864.238 84.25C859.405 84.25 855.072 85.3333 851.238 87.5C847.405 89.6667 844.405 92.6667 842.238 96.5C840.238 100.333 839.238 104.917 839.238 110.25V190H801.738ZM1004.9 193C989.896 193 976.813 189.5 965.646 182.5C954.646 175.333 947.146 165.75 943.146 153.75L970.646 140.75C974.146 148.083 978.896 153.833 984.896 158C990.896 162.167 997.563 164.25 1004.9 164.25C1010.23 164.25 1014.31 163.167 1017.15 161C1019.98 158.833 1021.4 155.833 1021.4 152C1021.4 150 1020.9 148.333 1019.9 147C1018.9 145.5 1017.4 144.167 1015.4 143C1013.4 141.833 1010.9 140.833 1007.9 140L984.646 133.5C973.48 130.333 964.896 125.25 958.896 118.25C952.896 111.083 949.896 102.667 949.896 93C949.896 84.5 952.063 77.0833 956.396 70.75C960.73 64.4167 966.813 59.5 974.646 56C982.48 52.3333 991.48 50.5 1001.65 50.5C1014.98 50.5 1026.65 53.6667 1036.65 60C1046.81 66.1667 1053.98 74.9167 1058.15 86.25L1030.4 99.25C1028.4 93.5833 1024.73 89.0833 1019.4 85.75C1014.23 82.25 1008.31 80.5 1001.65 80.5C996.813 80.5 992.98 81.5 990.146 83.5C987.48 85.5 986.146 88.25 986.146 91.75C986.146 93.5833 986.646 95.25 987.646 96.75C988.646 98.25 990.23 99.5833 992.396 100.75C994.73 101.917 997.563 103 1000.9 104L1022.65 110.5C1033.98 113.833 1042.65 118.917 1048.65 125.75C1054.65 132.417 1057.65 140.667 1057.65 150.5C1057.65 159 1055.4 166.417 1050.9 172.75C1046.56 179.083 1040.48 184.083 1032.65 187.75C1024.81 191.25 1015.56 193 1004.9 193ZM1129.06 193C1118.06 193 1108.64 190.667 1100.81 186C1093.14 181.167 1087.31 174.5 1083.31 166C1079.31 157.5 1077.31 147.583 1077.31 136.25V53.5H1114.81V133.25C1114.81 138.417 1115.81 143 1117.81 147C1119.98 150.833 1122.98 153.833 1126.81 156C1130.64 158.167 1134.98 159.25 1139.81 159.25C1144.81 159.25 1149.14 158.167 1152.81 156C1156.64 153.833 1159.56 150.833 1161.56 147C1163.73 143 1164.81 138.417 1164.81 133.25V53.5H1202.31V190H1167.31V163L1169.31 169C1166.14 177.167 1160.98 183.25 1153.81 187.25C1146.81 191.083 1138.56 193 1129.06 193ZM1229.72 190V53.5H1264.72V86.25L1262.22 81.5C1265.22 70 1270.13 62.25 1276.97 58.25C1283.97 54.0833 1292.22 52 1301.72 52H1309.72V84.5H1297.97C1288.8 84.5 1281.38 87.3333 1275.72 93C1270.05 98.5 1267.22 106.333 1267.22 116.5V190H1229.72ZM1391.9 193C1377.4 193 1364.82 189.833 1354.15 183.5C1343.49 177 1335.24 168.333 1329.4 157.5C1323.57 146.667 1320.65 134.667 1320.65 121.5C1320.65 107.833 1323.65 95.6667 1329.65 85C1335.82 74.3333 1344.07 65.9167 1354.4 59.75C1364.74 53.5833 1376.4 50.5 1389.4 50.5C1400.24 50.5 1409.82 52.25 1418.15 55.75C1426.49 59.0833 1433.49 63.8333 1439.15 70C1444.99 76.1667 1449.4 83.3333 1452.4 91.5C1455.4 99.5 1456.9 108.25 1456.9 117.75C1456.9 120.417 1456.74 123.083 1456.4 125.75C1456.24 128.25 1455.82 130.417 1455.15 132.25H1352.9V104.75H1433.9L1416.15 117.75C1417.82 110.583 1417.74 104.25 1415.9 98.75C1414.07 93.0833 1410.82 88.6667 1406.15 85.5C1401.65 82.1667 1396.07 80.5 1389.4 80.5C1382.9 80.5 1377.32 82.0833 1372.65 85.25C1367.99 88.4167 1364.49 93.0833 1362.15 99.25C1359.82 105.417 1358.9 112.917 1359.4 121.75C1358.74 129.417 1359.65 136.167 1362.15 142C1364.65 147.833 1368.49 152.417 1373.65 155.75C1378.82 158.917 1385.07 160.5 1392.4 160.5C1399.07 160.5 1404.74 159.167 1409.4 156.5C1414.24 153.833 1417.99 150.167 1420.65 145.5L1450.65 159.75C1447.99 166.417 1443.74 172.25 1437.9 177.25C1432.24 182.25 1425.49 186.167 1417.65 189C1409.82 191.667 1401.24 193 1391.9 193Z" fill="url(#paint0_linear_260_1334)" fill-opacity="0.2"/>
<defs>
<linearGradient id="paint0_linear_260_1334" x1="766.045" y1="-70" x2="686.798" y2="236.067" gradientUnits="userSpaceOnUse">
<stop offset="0.378704" stop-color="white"/>
<stop offset="0.90847" stop-color="#B3B3B3"/>
</linearGradient>
</defs>
</svg>
