<svg width="24" height="24" viewBox="0 0 24 24" fill="none" xmlns="http://www.w3.org/2000/svg">
<path fill-rule="evenodd" clip-rule="evenodd" d="M8.7765 2.25436C9.11555 2.21766 9.43668 2.41432 9.55808 2.73301L10.0176 3.93918C10.0995 4.15413 10.1404 4.2616 10.2283 4.31503C10.3163 4.36847 10.4344 4.35484 10.6708 4.32758C11.117 4.27612 11.5575 4.25 12.0001 4.25C12.4426 4.25 12.8831 4.27612 13.3293 4.32758C13.5657 4.35484 13.6838 4.36847 13.7718 4.31503C13.8597 4.2616 13.9007 4.15413 13.9825 3.93918L14.442 2.73301C14.5634 2.41432 14.8846 2.21766 15.2236 2.25436C16.9505 2.44129 18.689 2.83041 20.4233 4.07881C20.5497 4.16979 20.6446 4.29786 20.6949 4.44524C21.7982 7.67791 22.4019 10.4992 22.6353 12.767C22.8657 15.0061 22.7443 16.7902 22.3165 17.8957C22.3092 17.9147 22.3011 17.9334 22.2922 17.9517C21.9022 18.7576 21.3133 19.6763 20.5827 20.4056C19.8647 21.1224 18.9132 21.75 17.808 21.75C17.5299 21.75 17.2905 21.6249 17.1615 21.5502C17.0025 21.4581 16.8395 21.3378 16.6831 21.208C16.3681 20.9465 16.0215 20.598 15.7003 20.2204C15.3792 19.843 15.0662 19.4165 14.829 18.9942C14.7455 18.8456 14.7038 18.7713 14.7069 18.6868C14.7095 18.6164 14.7437 18.5373 14.7933 18.4872C14.8527 18.4271 14.9452 18.4042 15.1302 18.3584C15.8783 18.1734 16.8808 17.8994 17.267 17.7009C17.654 17.5534 17.8483 17.1201 17.7008 16.733C17.5534 16.3459 17.12 16.1517 16.733 16.2991C13.4049 17.567 10.595 17.567 7.26696 16.2991C6.87988 16.1517 6.44655 16.3459 6.29909 16.733C6.15163 17.1201 6.34588 17.5534 6.73296 17.7009C7.46099 17.9782 8.17008 18.2006 8.86774 18.3679C9.04622 18.4108 9.13546 18.4322 9.19304 18.4855C9.25125 18.5395 9.28914 18.6262 9.28915 18.7056C9.28915 18.7841 9.2498 18.8541 9.17109 18.9942C8.93394 19.4165 8.62093 19.843 8.29981 20.2204C7.97856 20.598 7.63202 20.9465 7.31699 21.208C7.16059 21.3378 6.99762 21.4581 6.8386 21.5502C6.70958 21.6249 6.47022 21.75 6.19211 21.75C5.08686 21.75 4.13542 21.1224 3.41741 20.4056C2.6868 19.6763 2.09791 18.7576 1.70792 17.9517C1.69905 17.9334 1.69093 17.9147 1.68357 17.8957C1.25582 16.7902 1.13441 15.0061 1.36483 12.767C1.59821 10.4992 2.20187 7.67791 3.30521 4.44524C3.35551 4.29786 3.45045 4.16979 3.57683 4.07881C5.31108 2.83041 7.04964 2.44129 8.7765 2.25436ZM5.5 10.5C5.5 9.39778 6.38969 8.49997 7.49247 8.49997H7.50753C8.61031 8.49997 9.5 9.39778 9.5 10.5C9.5 11.6022 8.61031 12.5 7.50753 12.5H7.49247C6.38969 12.5 5.5 11.6022 5.5 10.5ZM14.5 10.5C14.5 9.39778 15.3897 8.49997 16.4925 8.49997H16.5075C17.6103 8.49997 18.5 9.39778 18.5 10.5C18.5 11.6022 17.6103 12.5 16.5075 12.5H16.4925C15.3897 12.5 14.5 11.6022 14.5 10.5Z" fill="#ACACB8"/>
</svg>
