<svg width="1840" height="1240" viewBox="0 0 1840 1240" fill="none" xmlns="http://www.w3.org/2000/svg">
<path d="M742.406 150H892.812V0H592V450L742.406 600H892.812V450H742.406V150Z" fill="white"/>
<path d="M947.188 0V150H1097.59V450H947.188V600H1097.59L1248 450V0H947.188Z" fill="white"/>
<path d="M114.478 1119.6C94.7448 1119.6 77.4115 1113.47 62.4781 1101.2C47.8115 1088.93 36.3448 1071.73 28.0781 1049.6C20.0781 1027.2 16.0781 1000.8 16.0781 970.4C16.0781 941.067 20.4781 915.467 29.2781 893.6C38.3448 871.467 50.3448 854.4 65.2781 842.4C80.4781 830.133 97.2781 824 115.678 824C126.611 824 136.211 825.067 144.478 827.2C152.745 829.067 160.078 831.6 166.478 834.8C169.678 836.667 171.278 839.467 171.278 843.2L172.478 904C172.478 908.533 170.878 910.8 167.678 910.8C164.745 910.8 162.878 909.067 162.078 905.6L158.078 890.8C152.478 870 145.945 855.6 138.478 847.6C131.278 839.6 122.611 835.6 112.478 835.6C93.8115 835.6 78.2115 847.2 65.6781 870.4C53.4115 893.333 47.2781 926.667 47.2781 970.4C47.2781 1000.27 50.3448 1025.47 56.4781 1046C62.8781 1066.53 71.0115 1082 80.8781 1092.4C91.0115 1102.8 101.678 1108 112.878 1108C124.878 1108 134.478 1104.27 141.678 1096.8C149.145 1089.33 155.411 1074.93 160.478 1053.6L165.278 1034C166.078 1030 168.211 1028.27 171.678 1028.8C174.611 1029.33 176.078 1031.6 176.078 1035.6L174.478 1100.4C174.478 1104.13 172.745 1106.93 169.278 1108.8C162.878 1112 155.278 1114.53 146.478 1116.4C137.945 1118.53 127.278 1119.6 114.478 1119.6ZM203.066 1116C199.866 1116 198.266 1114.53 198.266 1111.6C198.266 1108.93 199.732 1107.33 202.666 1106.8L208.266 1106C213.866 1105.2 217.466 1103.6 219.066 1101.2C220.932 1098.8 221.866 1094.8 221.866 1089.2V860C221.866 855.2 221.066 852 219.466 850.4C218.132 848.533 215.599 847.333 211.866 846.8L203.466 845.6C200.532 845.067 199.066 843.467 199.066 840.8C199.066 838.133 200.532 836.533 203.466 836C210.932 834.4 217.199 832.533 222.266 830.4C227.332 828.267 231.599 826.133 235.066 824C239.332 821.333 242.532 820 244.666 820C247.599 820 249.066 822.133 249.066 826.4V932.4C249.066 934.8 249.866 936.267 251.466 936.8C253.066 937.067 255.066 936.133 257.466 934C267.599 924.667 276.532 918.267 284.266 914.8C291.999 911.333 300.132 909.6 308.666 909.6C321.199 909.6 331.066 913.867 338.266 922.4C345.466 930.667 349.066 942.933 349.066 959.2V1089.2C349.066 1094.8 349.866 1098.8 351.466 1101.2C353.332 1103.33 357.066 1104.8 362.666 1105.6L371.466 1106.8C374.399 1107.33 375.866 1108.93 375.866 1111.6C375.866 1114.53 374.266 1116 371.066 1116H303.866C300.132 1116 298.266 1114.53 298.266 1111.6C298.266 1108.93 299.732 1107.33 302.666 1106.8L308.266 1106C313.866 1105.2 317.466 1103.6 319.066 1101.2C320.932 1098.8 321.866 1094.8 321.866 1089.2V963.6C321.866 950.533 319.466 941.333 314.666 936C309.866 930.667 303.066 928 294.266 928C285.732 928 277.999 930.533 271.066 935.6C264.399 940.4 259.066 946.933 255.066 955.2C251.066 963.2 249.066 972.133 249.066 982V1089.2C249.066 1094.8 249.866 1098.8 251.466 1101.2C253.332 1103.6 257.066 1105.07 262.666 1105.6L273.466 1106.8C276.399 1107.33 277.866 1108.93 277.866 1111.6C277.866 1114.53 276.266 1116 273.066 1116H203.066ZM428.156 1119.6C416.956 1119.6 407.756 1116.13 400.556 1109.2C393.356 1102 389.756 1092.53 389.756 1080.8C389.756 1069.33 393.356 1058.53 400.556 1048.4C407.756 1038 417.623 1028.67 430.156 1020.4C442.69 1012.13 456.956 1005.47 472.956 1000.4C476.423 999.333 478.156 997.067 478.156 993.6V957.2C478.156 944.4 476.156 935.333 472.156 930C468.156 924.4 462.69 921.6 455.756 921.6C449.09 921.6 442.956 924.667 437.356 930.8C432.023 936.667 428.156 946.667 425.756 960.8C424.423 969.333 421.49 975.6 416.956 979.6C412.69 983.333 408.29 985.2 403.756 985.2C396.29 985.2 392.556 981.467 392.556 974C392.556 966.267 394.69 958.667 398.956 951.2C403.49 943.467 409.356 936.533 416.556 930.4C423.756 924 431.623 918.933 440.156 915.2C448.69 911.467 457.223 909.6 465.756 909.6C492.156 909.6 505.356 924.933 505.356 955.6V1078C505.356 1089.2 508.156 1094.8 513.756 1094.8C517.223 1094.8 520.423 1092.53 523.356 1088C526.29 1083.2 527.756 1075.2 527.756 1064C527.756 1059.73 529.49 1057.6 532.956 1057.6C536.156 1057.6 537.756 1059.87 537.756 1064.4C537.756 1083.87 534.29 1098 527.356 1106.8C520.69 1115.33 513.09 1119.6 504.556 1119.6C498.156 1119.6 493.09 1117.07 489.356 1112C485.623 1106.67 483.09 1100.4 481.756 1093.2C481.49 1090.53 480.29 1089.2 478.156 1089.2C476.29 1088.93 474.423 1090.13 472.556 1092.8C466.156 1101.6 459.623 1108.27 452.956 1112.8C446.29 1117.33 438.023 1119.6 428.156 1119.6ZM438.956 1101.2C445.89 1101.2 452.29 1098.8 458.156 1094C464.023 1088.93 468.823 1082.27 472.556 1074C476.29 1065.73 478.156 1056.4 478.156 1046V1016.8C478.156 1011.73 475.356 1010.27 469.756 1012.4C453.49 1018.27 440.823 1026.4 431.756 1036.8C422.956 1046.93 418.556 1059.2 418.556 1073.6C418.556 1092 425.356 1101.2 438.956 1101.2ZM585.522 874C579.922 874 575.122 872 571.122 868C567.389 864 565.522 858.933 565.522 852.8C565.522 846.667 567.389 841.733 571.122 838C575.122 834 579.922 832 585.522 832C591.122 832 595.789 834 599.522 838C603.255 841.733 605.122 846.667 605.122 852.8C605.122 858.933 603.255 864 599.522 868C595.789 872 591.122 874 585.522 874ZM551.922 1116C547.922 1116 545.922 1114.53 545.922 1111.6C545.922 1109.2 547.655 1107.6 551.122 1106.8L555.922 1106C562.589 1104.93 566.855 1103.33 568.722 1101.2C570.589 1098.8 571.522 1094.8 571.522 1089.2V954.8C571.522 950 570.722 946.8 569.122 945.2C567.789 943.333 565.255 942.133 561.522 941.6L553.122 940.4C549.655 940.133 547.922 938.667 547.922 936C547.922 933.867 550.055 932.4 554.322 931.6C562.589 930.267 569.255 928.133 574.322 925.2C579.389 922.267 584.322 918.667 589.122 914.4C591.522 912 593.522 910.8 595.122 910.8C597.522 910.8 598.722 912.4 598.722 915.6V1089.2C598.722 1094.8 599.522 1098.8 601.122 1101.2C602.722 1103.6 605.789 1105.07 610.322 1105.6L620.322 1106.8C623.255 1107.33 624.722 1108.8 624.722 1111.2C624.722 1114.4 622.722 1116 618.722 1116H551.922ZM640.984 1116C636.984 1116 634.984 1114.53 634.984 1111.6C634.984 1109.2 636.718 1107.6 640.184 1106.8L644.984 1106C650.584 1104.93 654.184 1103.33 655.784 1101.2C657.651 1098.8 658.584 1094.8 658.584 1089.2V954.8C658.584 950 657.784 946.8 656.184 945.2C654.851 943.333 652.318 942.133 648.584 941.6L640.184 940.4C636.718 940.133 634.984 938.667 634.984 936C634.984 933.867 637.118 932.4 641.384 931.6C649.651 930.267 655.918 928.133 660.184 925.2C664.718 922.267 669.384 918.667 674.184 914.4C676.584 912 678.584 910.8 680.184 910.8C682.584 910.8 683.784 912.4 683.784 915.6V933.6C683.784 936 684.584 937.6 686.184 938.4C688.051 938.933 690.051 938.133 692.184 936C702.851 925.867 712.184 918.933 720.184 915.2C728.451 911.467 737.118 909.6 746.184 909.6C758.184 909.6 767.784 913.867 774.984 922.4C782.184 930.667 785.784 942.933 785.784 959.2V1089.2C785.784 1094.8 786.584 1098.8 788.184 1101.2C790.051 1103.33 793.784 1104.8 799.384 1105.6L808.184 1106.8C811.118 1107.33 812.584 1108.93 812.584 1111.6C812.584 1114.53 810.984 1116 807.784 1116H740.584C736.851 1116 734.984 1114.53 734.984 1111.6C734.984 1108.93 736.451 1107.33 739.384 1106.8L744.984 1106C750.584 1105.2 754.184 1103.6 755.784 1101.2C757.651 1098.8 758.584 1094.8 758.584 1089.2V963.6C758.584 950.533 756.184 941.333 751.384 936C746.584 930.667 739.784 928 730.984 928C722.451 928 714.718 930.533 707.784 935.6C701.118 940.4 695.784 946.933 691.784 955.2C687.784 963.2 685.784 972.133 685.784 982V1089.2C685.784 1094.8 686.584 1098.8 688.184 1101.2C690.051 1103.6 693.784 1105.07 699.384 1105.6L710.184 1106.8C713.118 1107.33 714.584 1108.8 714.584 1111.2C714.584 1114.4 712.584 1116 708.584 1116H640.984ZM853.675 1012.4C851.008 1012.4 849.675 1011.07 849.675 1008.4V1002.8C849.675 1000.13 851.008 998.8 853.675 998.8H952.075C954.742 998.8 956.075 1000.13 956.075 1002.8V1008.4C956.075 1011.07 954.742 1012.4 952.075 1012.4H853.675ZM1034.35 874C1028.75 874 1023.95 872 1019.95 868C1016.22 864 1014.35 858.933 1014.35 852.8C1014.35 846.667 1016.22 841.733 1019.95 838C1023.95 834 1028.75 832 1034.35 832C1039.95 832 1044.62 834 1048.35 838C1052.08 841.733 1053.95 846.667 1053.95 852.8C1053.95 858.933 1052.08 864 1048.35 868C1044.62 872 1039.95 874 1034.35 874ZM1000.75 1116C996.75 1116 994.75 1114.53 994.75 1111.6C994.75 1109.2 996.483 1107.6 999.95 1106.8L1004.75 1106C1011.42 1104.93 1015.68 1103.33 1017.55 1101.2C1019.42 1098.8 1020.35 1094.8 1020.35 1089.2V954.8C1020.35 950 1019.55 946.8 1017.95 945.2C1016.62 943.333 1014.08 942.133 1010.35 941.6L1001.95 940.4C998.483 940.133 996.75 938.667 996.75 936C996.75 933.867 998.883 932.4 1003.15 931.6C1011.42 930.267 1018.08 928.133 1023.15 925.2C1028.22 922.267 1033.15 918.667 1037.95 914.4C1040.35 912 1042.35 910.8 1043.95 910.8C1046.35 910.8 1047.55 912.4 1047.55 915.6V1089.2C1047.55 1094.8 1048.35 1098.8 1049.95 1101.2C1051.55 1103.6 1054.62 1105.07 1059.15 1105.6L1069.15 1106.8C1072.08 1107.33 1073.55 1108.8 1073.55 1111.2C1073.55 1114.4 1071.55 1116 1067.55 1116H1000.75ZM1089.81 1116C1085.81 1116 1083.81 1114.53 1083.81 1111.6C1083.81 1109.2 1085.55 1107.6 1089.01 1106.8L1093.81 1106C1099.41 1104.93 1103.01 1103.33 1104.61 1101.2C1106.48 1098.8 1107.41 1094.8 1107.41 1089.2V954.8C1107.41 950 1106.61 946.8 1105.01 945.2C1103.68 943.333 1101.15 942.133 1097.41 941.6L1089.01 940.4C1085.55 940.133 1083.81 938.667 1083.81 936C1083.81 933.867 1085.95 932.4 1090.21 931.6C1098.48 930.267 1104.75 928.133 1109.01 925.2C1113.55 922.267 1118.21 918.667 1123.01 914.4C1125.41 912 1127.41 910.8 1129.01 910.8C1131.41 910.8 1132.61 912.4 1132.61 915.6V933.6C1132.61 936 1133.41 937.6 1135.01 938.4C1136.88 938.933 1138.88 938.133 1141.01 936C1151.68 925.867 1161.01 918.933 1169.01 915.2C1177.28 911.467 1185.95 909.6 1195.01 909.6C1207.01 909.6 1216.61 913.867 1223.81 922.4C1231.01 930.667 1234.61 942.933 1234.61 959.2V1089.2C1234.61 1094.8 1235.41 1098.8 1237.01 1101.2C1238.88 1103.33 1242.61 1104.8 1248.21 1105.6L1257.01 1106.8C1259.95 1107.33 1261.41 1108.93 1261.41 1111.6C1261.41 1114.53 1259.81 1116 1256.61 1116H1189.41C1185.68 1116 1183.81 1114.53 1183.81 1111.6C1183.81 1108.93 1185.28 1107.33 1188.21 1106.8L1193.81 1106C1199.41 1105.2 1203.01 1103.6 1204.61 1101.2C1206.48 1098.8 1207.41 1094.8 1207.41 1089.2V963.6C1207.41 950.533 1205.01 941.333 1200.21 936C1195.41 930.667 1188.61 928 1179.81 928C1171.28 928 1163.55 930.533 1156.61 935.6C1149.95 940.4 1144.61 946.933 1140.61 955.2C1136.61 963.2 1134.61 972.133 1134.61 982V1089.2C1134.61 1094.8 1135.41 1098.8 1137.01 1101.2C1138.88 1103.6 1142.61 1105.07 1148.21 1105.6L1159.01 1106.8C1161.95 1107.33 1163.41 1108.8 1163.41 1111.2C1163.41 1114.4 1161.41 1116 1157.41 1116H1089.81ZM1318.1 1119.6C1311.97 1119.6 1305.44 1118.8 1298.5 1117.2C1291.57 1115.87 1285.97 1114.13 1281.7 1112C1279.3 1110.67 1278.1 1108.4 1278.1 1105.2L1276.9 1060.4C1276.9 1055.87 1278.64 1053.6 1282.1 1053.6C1285.04 1053.6 1287.04 1055.73 1288.1 1060C1292.64 1078.93 1298.1 1091.87 1304.5 1098.8C1311.17 1105.73 1319.17 1109.2 1328.5 1109.2C1336.24 1109.2 1342.64 1106.27 1347.7 1100.4C1352.77 1094.27 1355.3 1085.87 1355.3 1075.2C1355.3 1064.53 1352.37 1055.07 1346.5 1046.8C1340.64 1038.53 1330.77 1029.47 1316.9 1019.6C1303.04 1010.27 1292.9 1000.93 1286.5 991.6C1280.1 982 1276.9 971.6 1276.9 960.4C1276.9 945.2 1282.24 932.933 1292.9 923.6C1303.57 914.267 1317.7 909.6 1335.3 909.6C1340.64 909.6 1345.84 910.267 1350.9 911.6C1355.97 912.667 1360.5 914.533 1364.5 917.2C1366.9 918.8 1368.1 920.933 1368.1 923.6L1368.9 967.6C1368.9 971.6 1367.3 973.6 1364.1 973.6C1362.24 973.6 1360.9 973.067 1360.1 972C1359.3 970.667 1358.64 969.067 1358.1 967.2C1352.77 949.867 1347.44 937.867 1342.1 931.2C1336.77 924.267 1330.24 920.8 1322.5 920.8C1315.57 920.8 1309.84 923.2 1305.3 928C1300.77 932.8 1298.5 938.8 1298.5 946C1298.5 955.333 1301.3 963.467 1306.9 970.4C1312.5 977.333 1322.64 985.867 1337.3 996C1350.64 1005.6 1360.64 1016 1367.3 1027.2C1374.24 1038.13 1377.7 1050.13 1377.7 1063.2C1377.7 1080.27 1372.24 1094 1361.3 1104.4C1350.37 1114.53 1335.97 1119.6 1318.1 1119.6ZM1457.15 1119.6C1450.48 1119.6 1444.08 1118.13 1437.95 1115.2C1431.82 1112.27 1426.75 1107.6 1422.75 1101.2C1418.75 1094.8 1416.75 1086.27 1416.75 1075.6V936.4C1416.75 931.6 1415.95 928.267 1414.35 926.4C1413.02 924.533 1410.48 923.467 1406.75 923.2L1399.95 922.4C1395.42 921.867 1393.15 920.133 1393.15 917.2C1393.15 913.733 1395.68 912 1400.75 912H1437.95C1441.95 912 1443.95 914 1443.95 918V1067.2C1443.95 1079.47 1446.22 1088.27 1450.75 1093.6C1455.55 1098.67 1462.08 1101.2 1470.35 1101.2C1478.62 1101.2 1485.95 1098.93 1492.35 1094.4C1498.75 1089.6 1503.82 1083.33 1507.55 1075.6C1511.55 1067.6 1513.55 1058.93 1513.55 1049.6V936.4C1513.55 931.6 1512.75 928.267 1511.15 926.4C1509.82 924.533 1507.28 923.467 1503.55 923.2L1496.75 922.4C1492.22 921.867 1489.95 920.133 1489.95 917.2C1489.95 913.733 1492.48 912 1497.55 912H1534.75C1538.75 912 1540.75 914 1540.75 918V1073.2C1540.75 1078 1541.42 1081.33 1542.75 1083.2C1544.35 1084.8 1547.02 1085.87 1550.75 1086.4L1559.15 1087.6C1562.62 1087.87 1564.35 1089.2 1564.35 1091.6C1564.35 1094 1562.22 1095.6 1557.95 1096.4C1549.68 1097.47 1543.02 1099.6 1537.95 1102.8C1533.15 1106 1528.88 1109.87 1525.15 1114.4C1522.75 1116.8 1520.75 1118 1519.15 1118C1516.75 1118 1515.55 1116.4 1515.55 1113.2V1094.8C1515.55 1092.67 1514.75 1091.47 1513.15 1091.2C1511.82 1090.67 1510.35 1091.2 1508.75 1092.8C1498.88 1102.67 1490.08 1109.6 1482.35 1113.6C1474.88 1117.6 1466.48 1119.6 1457.15 1119.6ZM1631.99 937.6C1642.92 918.933 1656.12 909.6 1671.59 909.6C1680.39 909.6 1686.92 912.267 1691.19 917.6C1695.46 922.667 1697.59 928.4 1697.59 934.8C1697.59 939.867 1696.26 944 1693.59 947.2C1691.19 950.4 1687.32 952 1681.99 952C1677.72 952 1674.52 951.067 1672.39 949.2C1670.52 947.067 1668.92 944.667 1667.59 942C1666.52 939.333 1665.19 937.067 1663.59 935.2C1661.99 933.067 1659.32 932 1655.59 932C1650.79 932 1646.26 934.933 1641.99 940.8C1637.72 946.4 1634.12 954 1631.19 963.6C1628.52 973.2 1627.19 984.133 1627.19 996.4V1089.2C1627.19 1094.8 1627.99 1098.8 1629.59 1101.2C1631.46 1103.6 1635.19 1105.07 1640.79 1105.6L1651.59 1106.8C1654.52 1107.33 1655.99 1108.8 1655.99 1111.2C1655.99 1114.4 1653.99 1116 1649.99 1116H1582.39C1578.39 1116 1576.39 1114.53 1576.39 1111.6C1576.39 1109.2 1578.12 1107.6 1581.59 1106.8L1586.39 1106C1591.99 1104.93 1595.59 1103.33 1597.19 1101.2C1599.06 1098.8 1599.99 1094.8 1599.99 1089.2V954.8C1599.99 950 1599.19 946.8 1597.59 945.2C1596.26 943.333 1593.72 942.133 1589.99 941.6L1581.59 940.4C1578.12 940.133 1576.39 938.667 1576.39 936C1576.39 933.867 1578.52 932.4 1582.79 931.6C1591.06 930.267 1597.32 928.133 1601.59 925.2C1606.12 922.267 1610.79 918.667 1615.59 914.4C1617.99 912 1619.99 910.8 1621.59 910.8C1623.99 910.8 1625.19 912.4 1625.19 915.6V937.2C1625.19 939.067 1625.99 940.267 1627.59 940.8C1629.19 941.067 1630.66 940 1631.99 937.6ZM1774.53 1119.6C1761.73 1119.6 1750.27 1115.33 1740.13 1106.8C1730 1098.27 1721.87 1086.27 1715.73 1070.8C1709.87 1055.07 1706.93 1036.93 1706.93 1016.4C1706.93 995.333 1710 976.8 1716.13 960.8C1722.27 944.8 1730.67 932.267 1741.33 923.2C1752 914.133 1763.87 909.6 1776.93 909.6C1792.67 909.6 1805.33 916.133 1814.93 929.2C1824.8 942 1829.73 962.933 1829.73 992C1829.73 1000.8 1826.4 1005.2 1819.73 1005.2H1743.73C1738.4 1005.2 1735.73 1008.27 1735.73 1014.4C1735.73 1042.67 1739.87 1063.87 1748.13 1078C1756.4 1092.13 1766.93 1099.2 1779.73 1099.2C1789.87 1099.2 1798.13 1095.6 1804.53 1088.4C1810.93 1081.2 1816.13 1069.07 1820.13 1052C1820.93 1049.07 1822.67 1047.6 1825.33 1047.6C1828.53 1047.6 1829.73 1050.27 1828.93 1055.6C1824.67 1079.33 1817.87 1096 1808.53 1105.6C1799.2 1114.93 1787.87 1119.6 1774.53 1119.6ZM1742.53 995.2H1782.93C1795.73 995.2 1802.13 988.533 1802.13 975.2C1802.13 957.867 1800 944.267 1795.73 934.4C1791.47 924.533 1785.07 919.6 1776.53 919.6C1766.13 919.6 1757.33 925.6 1750.13 937.6C1743.2 949.6 1738.67 966.667 1736.53 988.8C1736 993.067 1738 995.2 1742.53 995.2Z" fill="white"/>
</svg>
