<svg width="152" height="97" viewBox="0 0 152 97" fill="none" xmlns="http://www.w3.org/2000/svg">
<path d="M110.334 24.2787C110.334 24.5225 110.228 24.7315 109.983 24.8709L76.3688 44.4471C75.4214 45.0044 74.2285 45.0044 73.2811 44.4471L44.4039 27.6227C44.1232 27.4485 43.9478 27.135 43.9478 26.8563V18.3571L110.299 15.7794V24.2787H110.334Z" fill="#CFD0FB" stroke="#302B63" stroke-width="0.348331" stroke-miterlimit="10"/>
<path d="M73.2811 35.9826L44.4039 19.1582C43.8074 18.8099 43.8074 17.9739 44.4039 17.6255L70.7197 2.29898C75.9829 -0.766328 82.5091 -0.766328 87.7723 2.29898L109.948 15.2221C110.404 15.5007 110.404 16.1277 109.948 16.4064L76.3337 35.9826C75.4215 36.5399 74.2285 36.5399 73.2811 35.9826Z" fill="#302B63"/>
<path d="M52.8599 24.1393C54.93 25.0798 56.2634 23.8258 56.2634 23.8258C57.4564 22.7112 59.281 21.8055 61.4213 21.3875C65.5968 20.5864 69.3511 22.0494 69.8424 24.5922C70.2283 26.6473 68.4038 28.7721 65.5266 29.9565C65.0353 30.1655 64.7898 30.7576 65.0354 31.2105V31.2453" fill="#CFD0FB"/>
<path d="M52.8599 24.1393C54.93 25.0798 56.2634 23.8258 56.2634 23.8258C57.4564 22.7112 59.281 21.8055 61.4213 21.3875C65.5968 20.5864 69.3511 22.0494 69.8424 24.5922C70.2283 26.6473 68.4038 28.7721 65.5266 29.9565C65.0353 30.1655 64.7898 30.7576 65.0354 31.2105V31.2453" stroke="#302B63" stroke-width="0.348331" stroke-miterlimit="10"/>
<path d="M99.246 22.7111C97.1758 23.6516 95.8424 22.3976 95.8424 22.3976C94.6494 21.283 92.8249 20.3773 90.6846 19.9593C86.5091 19.1581 82.7547 20.6211 82.2635 23.1639C81.8775 25.2191 83.7021 27.3439 86.5793 28.5282C87.0705 28.7372 87.3161 29.3294 87.0705 29.7822V29.8171" fill="#CFD0FB"/>
<path d="M99.246 22.7111C97.1758 23.6516 95.8424 22.3976 95.8424 22.3976C94.6494 21.283 92.8249 20.3773 90.6846 19.9593C86.5091 19.1581 82.7547 20.6211 82.2635 23.1639C81.8775 25.2191 83.7021 27.3439 86.5793 28.5282C87.0705 28.7372 87.3161 29.3294 87.0705 29.7822V29.8171" stroke="#302B63" stroke-width="0.348331" stroke-miterlimit="10"/>
<path d="M87.0352 29.7823V38.2468" stroke="#302B63" stroke-width="0.348331" stroke-miterlimit="10"/>
<path d="M65.0706 31.2454V39.7795" stroke="#302B63" stroke-width="0.348331" stroke-miterlimit="10"/>
<path d="M59.5261 30.7925C59.5261 30.7925 61.7367 29.4689 65.5613 29.9914L59.5261 30.7925Z" fill="#CFD0FB"/>
<path d="M59.5261 30.7925C59.5261 30.7925 61.7367 29.4689 65.5613 29.9914" stroke="#302B63" stroke-width="0.348331" stroke-miterlimit="10"/>
<path d="M86.825 28.7025C86.825 28.7025 90.8951 28.0059 92.5443 30.479L86.825 28.7025Z" fill="#CFD0FB"/>
<path d="M86.825 28.7025C86.825 28.7025 90.8951 28.0059 92.5443 30.479" stroke="#302B63" stroke-width="0.348331" stroke-miterlimit="10"/>
<path d="M40.8248 65.3469L30.0879 71.6169C29.1406 72.1742 27.9476 72.1742 27.0002 71.6169L3.10551 57.6836C1.84235 56.9521 1.1406 55.733 1.00024 54.4442V46.2235L6.85988 47.4079L41.8774 50.5429L64.0177 43.2279V51.4137C64.0177 51.6575 63.9125 51.8665 63.6669 52.0058L57.8423 55.3847V62.9434C57.8423 62.9434 57.7721 65.2076 55.5967 66.7751C55.0704 67.1582 53.8072 66.7751 52.8598 67.5066C50.7546 69.1437 48.4388 69.0392 46.6493 68.5516C45.2107 68.1684 44.0528 67.1931 43.2107 66.0088C42.7896 65.4863 42.088 64.9986 40.8248 65.3469Z" fill="#CFD0FB" stroke="#302B63" stroke-width="0.348331" stroke-miterlimit="10"/>
<path d="M59.5262 40.2322V30.7925L50.1228 35.7388L58.7193 40.8244L59.5262 40.2322Z" fill="#CFD0FB" stroke="#302B63" stroke-width="0.348331" stroke-miterlimit="10"/>
<path d="M27.3865 63.431L3.49174 49.4977C0.68472 47.8606 0.68472 43.8199 3.49174 42.148L31.7725 25.6719C32.7549 25.0797 34.0181 25.0797 35.0005 25.6719L64.0882 42.6356C64.5444 42.9143 64.5444 43.5413 64.0882 43.8199L30.4742 63.3961C29.5269 63.9535 28.369 63.9535 27.3865 63.431Z" fill="#302B63"/>
<path d="M92.2981 30.4094C92.1929 30.3745 90.8946 28.3891 87.1753 28.8071C87.1753 28.8071 87.5262 29.3296 87.2455 29.852V38.421L92.4736 35.3905L92.2981 30.4094Z" fill="#E3E3F9"/>
<path d="M42.5088 30.3047C44.579 31.2452 45.9124 29.9912 45.9124 29.9912C47.1053 28.8766 48.9299 27.9709 51.0702 27.5529C55.2457 26.7518 59.0001 28.2148 59.4913 30.7576C59.8773 32.8127 58.0527 34.9375 55.1755 36.1219C54.6843 36.3309 54.4387 36.923 54.6843 37.3759V37.4107" fill="#302B63"/>
<path d="M40.8245 57.161C42.4034 56.2554 43.07 57.5094 43.07 57.5094C44.0525 59.6342 47.4911 60.7489 51.2805 60.0174C55.456 59.2162 58.4384 56.5341 57.9472 53.9564C57.5963 52.1451 55.6315 50.8911 52.9999 50.6124C52.9999 50.6124 52.4735 50.3338 53.0349 50.0203" fill="#302B63"/>
<path d="M59.6667 30.8621C59.6667 30.8621 62.0527 29.6778 65.0702 30.1306C65.0702 30.1306 64.579 30.7576 64.8948 31.315V39.8491L59.6667 36.8534V30.8621Z" fill="#E3E3F9"/>
<path d="M111.176 62.9086L121.912 69.1785C122.86 69.7358 124.053 69.7358 125 69.1785L148.895 55.2453C150.158 54.5138 150.86 53.2946 151 52.0058V43.7852L145.141 44.9695L110.123 48.1045L87.9827 40.7896V48.9753C87.9827 49.2192 88.0879 49.4282 88.3335 49.5675L94.1581 52.9463V60.5051C94.1581 60.5051 94.1581 62.8737 96.4037 64.3367C101.176 67.402 104.439 67.0189 106.334 66.1829C107.351 65.73 108.123 64.8941 108.614 63.8839C108.93 63.2569 109.632 62.4906 111.176 62.9086Z" fill="#CFD0FB" stroke="#302B63" stroke-width="0.348331" stroke-miterlimit="10"/>
<path d="M92.5439 37.7938V28.4586C92.5439 28.3889 92.6141 28.3541 92.6492 28.3889L101.842 33.2655L93.2457 38.386L92.5439 37.7938Z" fill="#CFD0FB" stroke="#302B63" stroke-width="0.348331" stroke-miterlimit="10"/>
<path d="M124.579 60.9927L148.474 47.0595C151.281 45.4224 151.281 41.3817 148.474 39.7097L120.193 23.2337C119.211 22.6415 117.947 22.6415 116.965 23.2337L87.8773 40.1974C87.4211 40.4761 87.4211 41.1031 87.8773 41.3817L121.491 60.9579C122.439 61.5152 123.632 61.5152 124.579 60.9927Z" fill="#302B63"/>
<path d="M109.456 27.8665C107.386 28.807 106.053 27.553 106.053 27.553C104.86 26.4384 103.035 25.5327 100.895 25.1147C96.7193 24.3135 92.9649 25.7765 92.4737 28.3193C92.0877 30.3745 93.9123 32.4993 96.7895 33.6836C97.2807 33.8926 97.5263 34.4848 97.2807 34.9376V34.9725" fill="#302B63"/>
<path d="M88.3335 56.743V66.3918L82.1932 65.0681C82.1932 65.0681 81.0353 59.1465 81.2107 58.833C81.3862 58.5195 81.8774 57.4397 81.8774 57.4397L87.0353 56.743H88.3335Z" fill="#CFD0FB" stroke="#302B63" stroke-width="0.348331" stroke-miterlimit="10"/>
<path d="M111.176 54.7228C109.597 53.8172 108.93 55.0711 108.93 55.0711C107.948 57.196 104.509 58.3106 100.72 57.5791C96.5442 56.778 93.5617 54.0958 94.0529 51.5182C94.4038 49.7069 96.3687 48.4529 99.0003 48.1742C99.0003 48.1742 99.5266 47.8955 98.9652 47.582" fill="#302B63"/>
<path d="M108.404 77.6081C108.404 77.9216 108.263 78.2002 107.948 78.3744L81.6319 93.701C76.3687 96.7663 69.8424 96.7663 64.5793 93.701L42.4039 80.7779C42.1582 80.6385 42.053 80.4295 42.053 80.1857V71.5471L108.404 68.7953V77.6081Z" fill="#CFD0FB" stroke="#302B63" stroke-width="0.348331" stroke-miterlimit="10"/>
<path d="M64.825 58.1016V67.7503L70.9653 66.4267C70.9653 66.4267 72.1232 60.505 71.9478 60.1915C71.7723 59.8781 71.2811 58.7982 71.2811 58.7982L66.1232 58.1016H64.825Z" fill="#CFD0FB" stroke="#302B63" stroke-width="0.348331" stroke-miterlimit="10"/>
<path d="M107.947 68.0639L100.088 63.4659C98.6842 62.8041 98.0526 63.9536 98.0526 63.9536C97.0701 66.0784 93.6316 67.1931 89.8421 66.4616C85.6666 65.6604 82.6842 62.9783 83.1754 60.4006C83.5263 58.5893 85.4912 57.3353 88.1227 57.0567C88.1227 57.0567 88.5438 56.8477 88.228 56.569L79.1052 51.2395C78.1578 50.6822 76.9648 50.6822 76.0175 51.2395L64.8245 57.7533C64.4386 58.0668 64.8947 58.2758 64.8947 58.2758C67.4912 58.5893 69.4912 59.8085 69.8421 61.6198C70.3333 64.1626 67.3509 66.8796 63.1754 67.6807C59.3859 68.3774 55.9473 67.2627 54.9648 65.1728C54.9648 65.1728 54.3333 63.9884 52.8596 64.7548L42.4385 70.8157C41.9824 71.0944 41.9824 71.7214 42.4385 72L64.614 84.9231C69.8771 87.9884 76.4035 87.9884 81.6666 84.9231L107.982 69.5966C108.544 69.2482 108.544 68.4122 107.947 68.0639Z" fill="#302B63"/>
<path d="M101.983 21.074L98.0527 23.3033L100.263 23.5471L101.983 21.074Z" fill="#CFD0FB"/>
<path d="M50.6143 22.7809L54.3686 24.9754L51.4213 25.1147L50.6143 22.7809Z" fill="#CFD0FB"/>
</svg>
