<svg width="359" height="251" viewBox="0 0 359 251" fill="none" xmlns="http://www.w3.org/2000/svg">
<path d="M209.565 15.1186L212.386 13.5271L209.999 12.1527L207.178 13.7441L209.565 15.1186Z" stroke="#302B63" stroke-width="0.36169" stroke-miterlimit="10"/>
<path d="M223.165 7.08915L225.986 5.49771L223.599 4.12329L220.777 5.71473L223.165 7.08915Z" stroke="#302B63" stroke-width="0.36169" stroke-miterlimit="10"/>
<path d="M194.085 23.9439L196.906 22.3524L194.446 20.978L191.698 22.5695L194.085 23.9439Z" stroke="#302B63" stroke-width="0.36169" stroke-miterlimit="10"/>
<path d="M299.481 142.65V128.834L288.558 135.127C290.511 137.948 294.201 140.48 299.481 142.65Z" fill="#E3E3F9" stroke="#CFD0FB" stroke-width="0.36169" stroke-miterlimit="10"/>
<path d="M132.236 152.271C131.874 161.024 135.057 170.356 141.567 180.049V166.667C136.504 159.361 133.393 152.271 132.236 145.399V152.271Z" fill="#CFD0FB" stroke="#EAE8CF" stroke-width="0.36169" stroke-miterlimit="10"/>
<path d="M288.052 135.417L246.675 159.36C245.951 159.795 245.228 160.229 244.577 160.663C240.454 163.122 223.02 172.381 189.889 172.381C176.579 172.381 160.665 170.862 142.146 166.884V180.7C206.672 194.734 238.5 178.096 244.287 174.624C245.011 174.19 245.734 173.756 246.458 173.322L298.903 143.012C293.694 140.77 290.077 138.238 288.052 135.417Z" fill="#E3E3F9" stroke="#CFD0FB" stroke-width="0.36169" stroke-miterlimit="10"/>
<path d="M286.75 116.247C286.967 118.128 287.835 119.936 289.282 121.672C289.643 121.166 290.005 120.732 290.439 120.226C292.465 117.911 294.635 116.247 295.141 115.885V102.141C293.26 103.66 286.026 109.664 286.75 116.247Z" fill="#CFD0FB"/>
<path d="M132.019 152.344C131.657 160.301 134.189 169.922 141.857 180.99" stroke="#302B63" stroke-width="0.542535" stroke-miterlimit="10"/>
<path d="M131.946 137.514V152.416" stroke="#302B63" stroke-width="0.542535" stroke-miterlimit="10"/>
<path d="M295.358 101.78V116.175C295.358 116.175 272.716 131.944 299.409 143.084L246.53 173.611C245.807 174.045 245.083 174.479 244.36 174.913C239.441 177.879 207.178 195.24 141.857 180.99V166.594M295.358 101.78C295.358 101.78 272.716 117.549 299.409 128.689L246.53 159.216C245.807 159.65 245.083 160.084 244.36 160.518C239.441 163.484 207.178 180.845 141.857 166.594M295.358 101.78L253.981 77.908C222.152 90.7841 207.54 75.4485 207.54 75.4485L151.044 108.001C151.044 108.001 115.237 128.111 141.857 166.594" stroke="#302B63" stroke-width="0.542535" stroke-miterlimit="10"/>
<path d="M299.77 128.617V143.012" stroke="#302B63" stroke-width="0.542535" stroke-miterlimit="10"/>
<path d="M298.83 128.689C294.635 126.881 291.452 124.855 289.354 122.685C289.354 122.685 288.992 122.323 288.92 122.251C287.328 120.443 286.388 118.49 286.171 116.464C285.809 113.209 287.256 109.592 290.367 106.047C291.886 104.311 293.405 103.009 294.345 102.286C294.562 102.141 294.707 101.997 294.852 101.852L253.908 78.1973C237.488 84.7801 225.697 83.7674 218.68 81.7419C211.808 79.7888 208.191 76.5336 207.395 75.8102L151.044 108.29C150.899 108.362 136.576 116.609 132.959 132.161C130.5 142.795 133.538 154.297 141.857 166.377C141.929 166.377 142.074 166.45 142.146 166.45C206.599 180.411 238.428 163.773 244.143 160.301C244.866 159.867 245.589 159.433 246.313 158.999L287.69 135.127L298.83 128.689Z" fill="#302B63"/>
<path d="M288.052 135.489L288.558 135.2L298.83 140.191L299.481 142.723L297.962 143.518L291.379 142.216L287.039 139.178L288.052 135.489Z" fill="#E3E3F9"/>
<path d="M208.035 129.482C212.431 128.9 215.727 126.406 215.397 123.91C215.067 121.415 211.235 119.864 206.839 120.446C202.442 121.027 199.146 123.522 199.476 126.017C199.806 128.513 203.638 130.064 208.035 129.482Z" fill="#E3E3F9"/>
<path d="M208.832 135.506C219.13 134.143 226.853 128.319 226.083 122.496C225.312 116.674 216.339 113.059 206.041 114.422C195.743 115.784 188.02 121.609 188.79 127.431C189.561 133.254 198.534 136.869 208.832 135.506Z" stroke="#E3E3F9" stroke-width="0.36169" stroke-miterlimit="10"/>
<path d="M209.344 139.379C223.365 137.523 233.877 129.565 232.824 121.604C231.77 113.643 219.55 108.693 205.529 110.549C191.508 112.404 180.995 120.362 182.049 128.324C183.103 136.285 195.323 141.234 209.344 139.379Z" stroke="#E3E3F9" stroke-width="0.36169" stroke-miterlimit="10"/>
<path d="M209.838 143.108C227.503 140.77 240.748 130.752 239.422 120.731C238.096 110.71 222.7 104.482 205.035 106.82C187.37 109.157 174.125 119.176 175.451 129.197C176.777 139.217 192.173 145.446 209.838 143.108Z" stroke="#E3E3F9" stroke-width="0.36169" stroke-miterlimit="10"/>
<path d="M207.323 75.38V0" stroke="#302B63" stroke-width="0.36169" stroke-miterlimit="10"/>
<path d="M208.625 2.60413H206.093V5.13595H208.625V2.60413Z" fill="#302B63"/>
<path d="M208.625 12.5144H206.093V15.0462H208.625V12.5144Z" fill="#302B63"/>
<path d="M208.625 22.4971H206.093V25.0289H208.625V22.4971Z" fill="#302B63"/>
<path d="M208.625 32.4073H206.093V34.9392H208.625V32.4073Z" fill="#302B63"/>
<path d="M208.625 43.6198H206.093V46.1516H208.625V43.6198Z" fill="#302B63"/>
<path d="M208.625 53.6024H206.093V56.1342H208.625V53.6024Z" fill="#302B63"/>
<path d="M208.625 63.5127H206.093V66.0445H208.625V63.5127Z" fill="#302B63"/>
<path d="M208.625 73.4954H206.093V76.0272H208.625V73.4954Z" fill="#302B63"/>
<path d="M208.625 84.78H206.093V87.3119H208.625V84.78Z" fill="#E3E3F9"/>
<path d="M208.625 94.7627H206.093V97.2945H208.625V94.7627Z" fill="#E3E3F9"/>
<path d="M208.625 104.673H206.093V107.205H208.625V104.673Z" fill="#E3E3F9"/>
<path d="M89.7011 39.1348L100.19 33.2031L91.0754 27.9948L80.5864 33.9988L89.7011 39.1348Z" stroke="#302B63" stroke-width="0.36169" stroke-miterlimit="10"/>
<path d="M89.7011 49.7685L80.5864 44.6325V33.9988L89.7011 39.1348V49.7685Z" stroke="#302B63" stroke-width="0.36169" stroke-miterlimit="10"/>
<path d="M89.7009 49.7685L100.19 43.8368V33.2031L89.7009 39.1348V49.7685Z" stroke="#302B63" stroke-width="0.36169" stroke-miterlimit="10"/>
<path d="M81.2376 126.374L91.7266 120.443L82.6843 115.234L72.1953 121.238L81.2376 126.374Z" stroke="#302B63" stroke-width="0.36169" stroke-miterlimit="10"/>
<path d="M81.2376 137.008L72.1953 131.872V121.238L81.2376 126.374V137.008Z" stroke="#302B63" stroke-width="0.36169" stroke-miterlimit="10"/>
<path d="M81.2375 137.008L91.7266 131.076V120.443L81.2375 126.374V137.008Z" stroke="#302B63" stroke-width="0.36169" stroke-miterlimit="10"/>
<path d="M92.3052 228.588L102.794 222.584L93.7519 217.448L83.2629 223.452L92.3052 228.588Z" stroke="#302B63" stroke-width="0.36169" stroke-miterlimit="10"/>
<path d="M92.3052 239.222L83.2629 234.086V223.452L92.3052 228.588V239.222Z" stroke="#302B63" stroke-width="0.36169" stroke-miterlimit="10"/>
<path d="M92.3052 239.222L102.794 233.218V222.584L92.3052 228.588V239.222Z" stroke="#302B63" stroke-width="0.36169" stroke-miterlimit="10"/>
<path d="M287.401 232.784L297.89 226.852L288.775 221.716L278.286 227.648L287.401 232.784Z" stroke="#302B63" stroke-width="0.36169" stroke-miterlimit="10"/>
<path d="M287.401 243.417L278.286 238.281V227.648L287.401 232.784V243.417Z" stroke="#302B63" stroke-width="0.36169" stroke-miterlimit="10"/>
<path d="M287.401 243.417L297.89 237.485V226.852L287.401 232.784V243.417Z" stroke="#302B63" stroke-width="0.36169" stroke-miterlimit="10"/>
<path d="M343.824 124.711L354.313 118.779L345.198 113.571L334.709 119.575L343.824 124.711Z" stroke="#302B63" stroke-width="0.36169" stroke-miterlimit="10"/>
<path d="M343.824 135.344L334.709 130.208V119.575L343.824 124.711V135.344Z" stroke="#302B63" stroke-width="0.36169" stroke-miterlimit="10"/>
<path d="M343.824 135.344L354.313 129.413V118.779L343.824 124.711V135.344Z" stroke="#302B63" stroke-width="0.36169" stroke-miterlimit="10"/>
<path d="M322.195 23.4374L332.684 17.4334L323.642 12.2974L313.153 18.3014L322.195 23.4374Z" stroke="#302B63" stroke-width="0.36169" stroke-miterlimit="10"/>
<path d="M322.195 34.0712L313.153 28.9352V18.3015L322.195 23.4375V34.0712Z" stroke="#302B63" stroke-width="0.36169" stroke-miterlimit="10"/>
<path d="M322.195 34.0712L332.684 28.1395V17.4335L322.195 23.4375V34.0712Z" stroke="#302B63" stroke-width="0.36169" stroke-miterlimit="10"/>
<path d="M82.7564 45.8622L12.5886 85.7204L73.2803 120.587" stroke="#302B63" stroke-width="0.36169" stroke-miterlimit="10"/>
<path d="M162.69 0.289307L100.19 35.8072" stroke="#302B63" stroke-width="0.36169" stroke-miterlimit="10"/>
<path d="M314.672 29.8032L250.074 66.4786L338.544 117.405" stroke="#302B63" stroke-width="0.36169" stroke-miterlimit="10"/>
<path d="M354.313 126.519L407.771 157.263L426 146.701" stroke="#302B63" stroke-width="0.36169" stroke-miterlimit="10"/>
<path d="M297.094 237.992L317.782 249.855" stroke="#302B63" stroke-width="0.36169" stroke-miterlimit="10"/>
<path d="M60.0425 250L85.4332 235.388" stroke="#302B63" stroke-width="0.36169" stroke-miterlimit="10"/>
<path d="M164.932 40.8709L167.753 39.2794L165.366 37.905L162.545 39.4965L164.932 40.8709Z" stroke="#302B63" stroke-width="0.36169" stroke-miterlimit="10"/>
<path d="M178.532 32.8413L181.353 31.2499L178.894 29.8755L176.145 31.4669L178.532 32.8413Z" stroke="#302B63" stroke-width="0.36169" stroke-miterlimit="10"/>
<path d="M135.853 57.7256L138.674 56.1342L136.214 54.7598L133.465 56.3512L135.853 57.7256Z" stroke="#302B63" stroke-width="0.36169" stroke-miterlimit="10"/>
<path d="M149.452 49.6962L152.273 48.1048L149.814 46.7303L147.065 48.3218L149.452 49.6962Z" stroke="#302B63" stroke-width="0.36169" stroke-miterlimit="10"/>
<path d="M106.845 74.4357L109.666 72.8443L107.207 71.4698L104.458 73.0613L106.845 74.4357Z" stroke="#302B63" stroke-width="0.36169" stroke-miterlimit="10"/>
<path d="M120.445 66.4062L123.266 64.8147L120.806 63.4403L118.057 65.0317L120.445 66.4062Z" stroke="#302B63" stroke-width="0.36169" stroke-miterlimit="10"/>
<path d="M77.7651 91.2904L80.5862 89.699L78.1268 88.3246L75.3779 89.916L77.7651 91.2904Z" stroke="#302B63" stroke-width="0.36169" stroke-miterlimit="10"/>
<path d="M91.3647 83.261L94.1858 81.6696L91.7264 80.2952L88.9775 81.8866L91.3647 83.261Z" stroke="#302B63" stroke-width="0.36169" stroke-miterlimit="10"/>
<path d="M61.7784 100.333L64.5997 98.7412L62.1401 97.3668L59.3914 98.9583L61.7784 100.333Z" stroke="#302B63" stroke-width="0.36169" stroke-miterlimit="10"/>
<path d="M32.7711 116.97L35.52 115.379L33.1328 114.005L30.3115 115.596L32.7711 116.97Z" stroke="#302B63" stroke-width="0.36169" stroke-miterlimit="10"/>
<path d="M46.3705 108.941L49.1192 107.349L46.7322 106.047L43.9109 107.566L46.3705 108.941Z" stroke="#302B63" stroke-width="0.36169" stroke-miterlimit="10"/>
<path d="M3.69129 133.825L6.43999 132.234L4.05298 130.859L1.23169 132.451L3.69129 133.825Z" stroke="#302B63" stroke-width="0.36169" stroke-miterlimit="10"/>
<path d="M17.2905 125.796L20.0394 124.277L17.6522 122.902L14.8311 124.421L17.2905 125.796Z" stroke="#302B63" stroke-width="0.36169" stroke-miterlimit="10"/>
<path d="M339.701 71.3252L342.522 72.9166L340.063 74.2911L337.314 72.6996L339.701 71.3252Z" stroke="#302B63" stroke-width="0.36169" stroke-miterlimit="10"/>
<path d="M353.3 79.3547L356.122 80.9462L353.662 82.3206L350.913 80.7292L353.3 79.3547Z" stroke="#302B63" stroke-width="0.36169" stroke-miterlimit="10"/>
<path d="M310.621 54.4705L313.442 56.0619L310.983 57.4363L308.234 55.8449L310.621 54.4705Z" stroke="#302B63" stroke-width="0.36169" stroke-miterlimit="10"/>
<path d="M324.221 62.5L327.042 64.0914L324.582 65.4659L321.833 63.8744L324.221 62.5Z" stroke="#302B63" stroke-width="0.36169" stroke-miterlimit="10"/>
<path d="M294.635 45.4282L297.456 47.0197L294.996 48.3941L292.247 46.8026L294.635 45.4282Z" stroke="#302B63" stroke-width="0.36169" stroke-miterlimit="10"/>
<path d="M265.627 28.7181L268.448 30.3096L265.989 31.684L263.24 30.0926L265.627 28.7181Z" stroke="#302B63" stroke-width="0.36169" stroke-miterlimit="10"/>
<path d="M279.227 36.7477L282.048 38.3391L279.588 39.7135L276.839 38.1221L279.227 36.7477Z" stroke="#302B63" stroke-width="0.36169" stroke-miterlimit="10"/>
<path d="M236.547 11.8634L239.368 13.4548L236.909 14.8293L234.16 13.2378L236.547 11.8634Z" stroke="#302B63" stroke-width="0.36169" stroke-miterlimit="10"/>
<path d="M250.146 19.8929L252.968 21.4844L250.508 22.8588L247.759 21.2674L250.146 19.8929Z" stroke="#302B63" stroke-width="0.36169" stroke-miterlimit="10"/>
<path d="M339.195 159.578L342.016 157.986L339.629 156.612L336.808 158.203L339.195 159.578Z" stroke="#302B63" stroke-width="0.36169" stroke-miterlimit="10"/>
<path d="M352.794 151.548L355.615 149.957L353.156 148.582L350.407 150.174L352.794 151.548Z" stroke="#302B63" stroke-width="0.36169" stroke-miterlimit="10"/>
<path d="M310.115 176.432L312.936 174.841L310.476 173.466L307.728 175.058L310.115 176.432Z" stroke="#302B63" stroke-width="0.36169" stroke-miterlimit="10"/>
<path d="M323.714 168.403L326.535 166.811L324.076 165.437L321.327 167.028L323.714 168.403Z" stroke="#302B63" stroke-width="0.36169" stroke-miterlimit="10"/>
<path d="M281.107 193.07L283.929 191.479L281.469 190.104L278.72 191.696L281.107 193.07Z" stroke="#302B63" stroke-width="0.36169" stroke-miterlimit="10"/>
<path d="M294.707 185.04L297.528 183.521L295.068 182.147L292.32 183.738L294.707 185.04Z" stroke="#302B63" stroke-width="0.36169" stroke-miterlimit="10"/>
<path d="M252.027 209.925L254.849 208.406L252.389 207.031L249.64 208.55L252.027 209.925Z" stroke="#302B63" stroke-width="0.36169" stroke-miterlimit="10"/>
<path d="M265.627 201.968L268.448 200.376L265.989 199.002L263.24 200.593L265.627 201.968Z" stroke="#302B63" stroke-width="0.36169" stroke-miterlimit="10"/>
<path d="M236.041 218.967L238.862 217.376L236.402 216.001L233.654 217.593L236.041 218.967Z" stroke="#302B63" stroke-width="0.36169" stroke-miterlimit="10"/>
<path d="M207.033 235.677L209.854 234.086L207.395 232.711L204.646 234.303L207.033 235.677Z" stroke="#302B63" stroke-width="0.36169" stroke-miterlimit="10"/>
<path d="M220.633 227.648L223.382 226.056L220.994 224.682L218.173 226.273L220.633 227.648Z" stroke="#302B63" stroke-width="0.36169" stroke-miterlimit="10"/>
<path d="M191.553 244.502L194.302 242.911L191.915 241.536L189.093 243.128L191.553 244.502Z" stroke="#302B63" stroke-width="0.36169" stroke-miterlimit="10"/>
<path d="M178.532 232.784L181.353 234.375L178.894 235.749L176.145 234.158L178.532 232.784Z" stroke="#302B63" stroke-width="0.36169" stroke-miterlimit="10"/>
<path d="M149.452 215.929L152.273 217.52L149.814 218.895L147.065 217.303L149.452 215.929Z" stroke="#302B63" stroke-width="0.36169" stroke-miterlimit="10"/>
<path d="M163.052 223.958L165.873 225.55L163.413 226.924L160.665 225.333L163.052 223.958Z" stroke="#302B63" stroke-width="0.36169" stroke-miterlimit="10"/>
<path d="M120.445 199.219L123.266 200.81L120.806 202.185L118.057 200.593L120.445 199.219Z" stroke="#302B63" stroke-width="0.36169" stroke-miterlimit="10"/>
<path d="M134.044 207.248L136.865 208.84L134.406 210.214L131.584 208.623L134.044 207.248Z" stroke="#302B63" stroke-width="0.36169" stroke-miterlimit="10"/>
<path d="M91.3647 182.364L94.1858 183.955L91.7264 185.33L88.9775 183.738L91.3647 182.364Z" stroke="#302B63" stroke-width="0.36169" stroke-miterlimit="10"/>
<path d="M104.964 190.393L107.713 191.985L105.326 193.359L102.505 191.768L104.964 190.393Z" stroke="#302B63" stroke-width="0.36169" stroke-miterlimit="10"/>
<path d="M75.3779 173.322L78.1992 174.913L75.7396 176.288L72.9907 174.696L75.3779 173.322Z" stroke="#302B63" stroke-width="0.36169" stroke-miterlimit="10"/>
<path d="M46.3705 156.684L49.1192 158.275L46.7322 159.65L43.9109 158.058L46.3705 156.684Z" stroke="#302B63" stroke-width="0.36169" stroke-miterlimit="10"/>
<path d="M59.9699 164.714L62.7188 166.305L60.3316 167.679L57.5105 166.088L59.9699 164.714Z" stroke="#302B63" stroke-width="0.36169" stroke-miterlimit="10"/>
<path d="M17.2905 139.829L20.0394 141.421L17.6522 142.795L14.8311 141.204L17.2905 139.829Z" stroke="#302B63" stroke-width="0.36169" stroke-miterlimit="10"/>
<path d="M30.8901 147.859L33.639 149.378L31.2518 150.752L28.4307 149.233L30.8901 147.859Z" stroke="#302B63" stroke-width="0.36169" stroke-miterlimit="10"/>
<path d="M207.323 124.855V75.7378" stroke="#E3E3F9" stroke-width="0.36169" stroke-miterlimit="10"/>
</svg>
