<svg width="122" height="152" viewBox="0 0 122 152" fill="none" xmlns="http://www.w3.org/2000/svg">
<path d="M28.4517 21.676V32.1418" stroke="#302B63" stroke-width="0.5" stroke-miterlimit="10"/>
<path d="M99.0688 150.329L119.359 139.486C120.304 138.873 121 137.789 121 136.563V71.836C121 68.536 119.16 65.4245 116.126 63.7745C97.4277 53.4031 52.4215 28.653 29.5952 16.113C28.4016 15.453 27.1087 15.2644 25.9152 15.453L3.53638 27.0973L99.0688 150.329Z" fill="#E3E3F9" stroke="#302B63" stroke-width="0.5" stroke-miterlimit="10"/>
<path d="M53.2671 4.84588L60.5775 1.40444C68.9819 -1.14128 83.4535 8.66446 88.3768 21.4402C92.952 33.3203 92.7532 43.5031 85.9401 46.9446L78.9778 50.2446L80.4697 31.0574L71.1203 13.2373L55.9525 7.48589L53.2671 4.84588Z" fill="#E3E3F9" stroke="#302B63" stroke-width="0.5" stroke-miterlimit="10"/>
<path d="M115.629 141.608V75.089C115.629 71.789 113.789 68.6776 110.756 67.0276C92.0571 56.6561 51.278 34.2161 28.4516 21.676L18.9531 26.7203C41.7795 39.2604 82.5586 61.7004 101.257 72.0719C104.291 73.769 106.131 76.8333 106.131 80.1333V146.652" fill="#CFD0FB"/>
<path d="M115.629 141.608V75.089C115.629 71.789 113.789 68.6776 110.756 67.0276C92.0571 56.6561 51.278 34.2161 28.4516 21.676L18.9531 26.7203C41.7795 39.2604 82.5586 61.7004 101.257 72.0719C104.291 73.769 106.131 76.8333 106.131 80.1333V146.652" stroke="#302B63" stroke-width="0.5" stroke-miterlimit="10"/>
<path d="M76.9885 50.9988C74.8501 51.6588 72.3139 51.5645 69.5787 50.9517C61.6218 49.0188 52.3719 41.9945 48.6919 32.4716C43.7685 19.6959 44.9122 7.43869 53.3167 4.89297C61.7212 2.34724 76.1929 12.153 81.1162 24.9287C85.9898 37.6102 85.393 48.4531 76.9885 50.9988Z" fill="#302B63" stroke="#302B63" stroke-width="0.5" stroke-miterlimit="10"/>
<path d="M94.9909 150.518C76.0435 140.005 32.6785 116.151 10.0013 103.705C4.43146 100.641 1 94.9834 1 88.9019V31.4817C1 27.4274 5.62492 24.9288 9.30499 26.956C32.1313 39.496 77.1376 64.2461 95.8363 74.6176C98.8698 76.3147 100.71 79.379 100.71 82.679V147.406C100.71 150.188 97.5271 151.885 94.9909 150.518Z" fill="#302B63" stroke="#302B63" stroke-width="0.5" stroke-miterlimit="10"/>
<path d="M73.7063 44.7288C72.1647 45.2002 70.275 45.153 68.3355 44.6816C62.5668 43.2673 55.8033 38.1287 53.1179 31.1987C49.5373 21.9115 50.333 12.9544 56.4498 11.1158C62.5667 9.27722 73.1096 16.3958 76.6902 25.683C80.2708 34.9702 79.8232 42.8902 73.7063 44.7288Z" fill="#CFD0FB" stroke="#302B63" stroke-width="0.5" stroke-miterlimit="10"/>
<path d="M100.412 100.122L66.3462 81.406C64.2078 80.2275 61.5222 81.6889 61.5222 84.046V102.903C61.5222 105.873 63.1634 108.56 65.8489 110.069L100.412 129.068V100.122Z" fill="#E3E3F9"/>
<path d="M77.5359 109.55C76.7402 109.739 75.845 109.645 74.9002 109.315C72.1152 108.419 69.0319 105.59 68.0373 102.055C66.6946 97.2932 67.4405 92.8618 70.5238 92.2018C73.6071 91.4946 78.4807 95.4546 79.8234 100.216C81.1662 104.93 80.6192 108.843 77.5359 109.55Z" fill="#302B63"/>
</svg>
